# xmcd
#
# Track frame offsets:
#	150
#	13849
#	26648
#	41631
#	55865
#	69783
#	84058
#	95986
#	110136
#	121128
#
# Disc length: 1791 seconds
#
# Revision: 1
# Processed by: cddbd v1.5.2PL0 Copyright (c) Steve Scherf et al.
# Submitted via: dBpowerAMP V4.0
#
DISCID=7d06fd0a
DTITLE=Ella Fitzgerald and Louis Armstrong - Love Songs
DYEAR=2005
DGENRE=Jazz
TTITLE0=Starlit Hour
TTITLE1=I Can't Give You Anything But Love
TTITLE2=Love and Kisses
TTITLE3=Body and Soul
TTITLE4=Stairway to the Stars
TTITLE5=Just A Gigolo
TTITLE6=If Dreams Come True
TTITLE7=Memories Of You
TTITLE8=That Old Black Magic
TTITLE9=A Kiss To Buld A Dream On
EXTD=
EXTT0=
EXTT1=
EXTT2=
EXTT3=
EXTT4=
EXTT5=
EXTT6=
EXTT7=
EXTT8=
EXTT9=
PLAYORDER=
